<mxfile host="app.diagrams.net" modified="2024-03-17T14:55:25.283Z" agent="Mozilla/5.0 (Windows NT 10.0; Win64; x64) AppleWebKit/537.36 (KHTML, like Gecko) Chrome/122.0.0.0 Safari/537.36" etag="5ysr71aGjNeBEWc80Kq2" version="24.0.7" type="device">
  <diagram name="Page-1" id="sNvwlLEF-2-6M585rfIR">
    <mxGraphModel dx="1400" dy="765" grid="1" gridSize="10" guides="1" tooltips="1" connect="1" arrows="1" fold="1" page="1" pageScale="1" pageWidth="1654" pageHeight="2336" math="0" shadow="0">
      <root>
        <mxCell id="0" />
        <mxCell id="1" parent="0" />
        <mxCell id="p-UVEbDCttvi8_ktXBPC-6" value="Registracija" style="ellipse;whiteSpace=wrap;html=1;" vertex="1" parent="1">
          <mxGeometry x="40" y="40" width="120" height="80" as="geometry" />
        </mxCell>
        <mxCell id="p-UVEbDCttvi8_ktXBPC-8" value="Logovanje" style="ellipse;whiteSpace=wrap;html=1;" vertex="1" parent="1">
          <mxGeometry x="280" y="40" width="120" height="80" as="geometry" />
        </mxCell>
        <mxCell id="p-UVEbDCttvi8_ktXBPC-41" style="edgeStyle=orthogonalEdgeStyle;rounded=0;orthogonalLoop=1;jettySize=auto;html=1;exitX=0.5;exitY=1;exitDx=0;exitDy=0;entryX=1;entryY=0.5;entryDx=0;entryDy=0;" edge="1" parent="1" source="p-UVEbDCttvi8_ktXBPC-10" target="p-UVEbDCttvi8_ktXBPC-36">
          <mxGeometry relative="1" as="geometry">
            <Array as="points">
              <mxPoint x="600" y="60" />
              <mxPoint x="600" y="320" />
            </Array>
          </mxGeometry>
        </mxCell>
        <mxCell id="p-UVEbDCttvi8_ktXBPC-42" style="edgeStyle=orthogonalEdgeStyle;rounded=0;orthogonalLoop=1;jettySize=auto;html=1;exitX=0.5;exitY=1;exitDx=0;exitDy=0;entryX=1;entryY=0.5;entryDx=0;entryDy=0;" edge="1" parent="1" target="p-UVEbDCttvi8_ktXBPC-40">
          <mxGeometry relative="1" as="geometry">
            <mxPoint x="650" y="60" as="sourcePoint" />
            <mxPoint x="220" y="480" as="targetPoint" />
            <Array as="points">
              <mxPoint x="630" y="60" />
              <mxPoint x="630" y="480" />
            </Array>
          </mxGeometry>
        </mxCell>
        <mxCell id="p-UVEbDCttvi8_ktXBPC-155" style="edgeStyle=orthogonalEdgeStyle;rounded=0;orthogonalLoop=1;jettySize=auto;html=1;entryX=1;entryY=0.5;entryDx=0;entryDy=0;" edge="1" parent="1" source="p-UVEbDCttvi8_ktXBPC-10" target="p-UVEbDCttvi8_ktXBPC-144">
          <mxGeometry relative="1" as="geometry">
            <Array as="points">
              <mxPoint x="680" y="535" />
            </Array>
          </mxGeometry>
        </mxCell>
        <mxCell id="p-UVEbDCttvi8_ktXBPC-10" value="&lt;font style=&quot;font-size: 14px;&quot;&gt;&lt;b&gt;MUÅ TERIJA&lt;/b&gt;&lt;/font&gt;" style="rounded=0;whiteSpace=wrap;html=1;" vertex="1" parent="1">
          <mxGeometry x="590" width="120" height="60" as="geometry" />
        </mxCell>
        <mxCell id="p-UVEbDCttvi8_ktXBPC-11" value="" style="endArrow=classic;html=1;rounded=0;exitX=0;exitY=0.5;exitDx=0;exitDy=0;" edge="1" parent="1" source="p-UVEbDCttvi8_ktXBPC-10" target="p-UVEbDCttvi8_ktXBPC-6">
          <mxGeometry width="50" height="50" relative="1" as="geometry">
            <mxPoint x="470" y="75" as="sourcePoint" />
            <mxPoint x="180" y="30" as="targetPoint" />
            <Array as="points">
              <mxPoint x="390" y="10" />
            </Array>
          </mxGeometry>
        </mxCell>
        <mxCell id="p-UVEbDCttvi8_ktXBPC-12" value="" style="endArrow=classic;html=1;rounded=0;entryX=1.023;entryY=0.61;entryDx=0;entryDy=0;entryPerimeter=0;exitX=0;exitY=0.75;exitDx=0;exitDy=0;" edge="1" parent="1">
          <mxGeometry width="50" height="50" relative="1" as="geometry">
            <mxPoint x="590" y="46" as="sourcePoint" />
            <mxPoint x="402.76" y="89.79999999999995" as="targetPoint" />
          </mxGeometry>
        </mxCell>
        <mxCell id="p-UVEbDCttvi8_ktXBPC-13" value="" style="endArrow=none;html=1;rounded=0;" edge="1" parent="1">
          <mxGeometry width="50" height="50" relative="1" as="geometry">
            <mxPoint x="40" y="160" as="sourcePoint" />
            <mxPoint x="200" y="160" as="targetPoint" />
          </mxGeometry>
        </mxCell>
        <mxCell id="p-UVEbDCttvi8_ktXBPC-15" value="PODACI_O_KORISNICIMA" style="text;html=1;align=center;verticalAlign=middle;whiteSpace=wrap;rounded=0;" vertex="1" parent="1">
          <mxGeometry x="90" y="160" width="60" height="30" as="geometry" />
        </mxCell>
        <mxCell id="p-UVEbDCttvi8_ktXBPC-16" value="" style="endArrow=none;html=1;rounded=0;" edge="1" parent="1">
          <mxGeometry width="50" height="50" relative="1" as="geometry">
            <mxPoint x="40" y="190" as="sourcePoint" />
            <mxPoint x="200" y="190" as="targetPoint" />
          </mxGeometry>
        </mxCell>
        <mxCell id="p-UVEbDCttvi8_ktXBPC-17" value="" style="endArrow=classic;html=1;rounded=0;exitX=0.5;exitY=1;exitDx=0;exitDy=0;entryX=0.25;entryY=0;entryDx=0;entryDy=0;" edge="1" parent="1" source="p-UVEbDCttvi8_ktXBPC-6" target="p-UVEbDCttvi8_ktXBPC-15">
          <mxGeometry width="50" height="50" relative="1" as="geometry">
            <mxPoint x="470" y="250" as="sourcePoint" />
            <mxPoint x="520" y="200" as="targetPoint" />
          </mxGeometry>
        </mxCell>
        <mxCell id="p-UVEbDCttvi8_ktXBPC-20" value="Odabir tretmana" style="ellipse;whiteSpace=wrap;html=1;" vertex="1" parent="1">
          <mxGeometry x="354" y="135" width="120" height="80" as="geometry" />
        </mxCell>
        <mxCell id="p-UVEbDCttvi8_ktXBPC-21" value="" style="endArrow=classic;html=1;rounded=0;exitX=0;exitY=1;exitDx=0;exitDy=0;entryX=1;entryY=0;entryDx=0;entryDy=0;" edge="1" parent="1" source="p-UVEbDCttvi8_ktXBPC-10" target="p-UVEbDCttvi8_ktXBPC-20">
          <mxGeometry width="50" height="50" relative="1" as="geometry">
            <mxPoint x="470" y="250" as="sourcePoint" />
            <mxPoint x="390" y="160" as="targetPoint" />
          </mxGeometry>
        </mxCell>
        <mxCell id="p-UVEbDCttvi8_ktXBPC-22" value="" style="endArrow=classic;html=1;rounded=0;entryX=0;entryY=0.5;entryDx=0;entryDy=0;" edge="1" parent="1" target="p-UVEbDCttvi8_ktXBPC-20">
          <mxGeometry width="50" height="50" relative="1" as="geometry">
            <mxPoint x="170" y="190" as="sourcePoint" />
            <mxPoint x="520" y="200" as="targetPoint" />
            <Array as="points">
              <mxPoint x="230" y="220" />
            </Array>
          </mxGeometry>
        </mxCell>
        <mxCell id="p-UVEbDCttvi8_ktXBPC-23" value="" style="endArrow=none;html=1;rounded=0;" edge="1" parent="1">
          <mxGeometry width="50" height="50" relative="1" as="geometry">
            <mxPoint x="200" y="240" as="sourcePoint" />
            <mxPoint x="340" y="240" as="targetPoint" />
          </mxGeometry>
        </mxCell>
        <mxCell id="p-UVEbDCttvi8_ktXBPC-24" value="" style="endArrow=none;html=1;rounded=0;" edge="1" parent="1">
          <mxGeometry width="50" height="50" relative="1" as="geometry">
            <mxPoint x="200" y="270" as="sourcePoint" />
            <mxPoint x="340" y="270" as="targetPoint" />
          </mxGeometry>
        </mxCell>
        <mxCell id="p-UVEbDCttvi8_ktXBPC-26" value="LISTA_TRETMANA" style="text;html=1;align=center;verticalAlign=middle;whiteSpace=wrap;rounded=0;" vertex="1" parent="1">
          <mxGeometry x="240" y="240" width="60" height="30" as="geometry" />
        </mxCell>
        <mxCell id="p-UVEbDCttvi8_ktXBPC-27" value="LISTA_TERMINA" style="text;html=1;align=center;verticalAlign=middle;whiteSpace=wrap;rounded=0;" vertex="1" parent="1">
          <mxGeometry x="170" y="380" width="60" height="30" as="geometry" />
        </mxCell>
        <mxCell id="p-UVEbDCttvi8_ktXBPC-28" value="" style="endArrow=none;html=1;rounded=0;" edge="1" parent="1">
          <mxGeometry width="50" height="50" relative="1" as="geometry">
            <mxPoint x="150" y="380" as="sourcePoint" />
            <mxPoint x="250" y="380" as="targetPoint" />
          </mxGeometry>
        </mxCell>
        <mxCell id="p-UVEbDCttvi8_ktXBPC-29" value="" style="endArrow=none;html=1;rounded=0;" edge="1" parent="1">
          <mxGeometry width="50" height="50" relative="1" as="geometry">
            <mxPoint x="150" y="410" as="sourcePoint" />
            <mxPoint x="250" y="410" as="targetPoint" />
            <Array as="points">
              <mxPoint x="200" y="410" />
            </Array>
          </mxGeometry>
        </mxCell>
        <mxCell id="p-UVEbDCttvi8_ktXBPC-30" value="" style="endArrow=none;html=1;rounded=0;" edge="1" parent="1">
          <mxGeometry width="50" height="50" relative="1" as="geometry">
            <mxPoint x="160" y="520" as="sourcePoint" />
            <mxPoint x="260" y="520" as="targetPoint" />
          </mxGeometry>
        </mxCell>
        <mxCell id="p-UVEbDCttvi8_ktXBPC-31" value="" style="endArrow=none;html=1;rounded=0;" edge="1" parent="1">
          <mxGeometry width="50" height="50" relative="1" as="geometry">
            <mxPoint x="160" y="550" as="sourcePoint" />
            <mxPoint x="260" y="550" as="targetPoint" />
          </mxGeometry>
        </mxCell>
        <mxCell id="p-UVEbDCttvi8_ktXBPC-33" value="PRIKAZ_FRIZERA" style="text;html=1;align=center;verticalAlign=middle;whiteSpace=wrap;rounded=0;" vertex="1" parent="1">
          <mxGeometry x="180" y="510" width="60" height="50" as="geometry" />
        </mxCell>
        <mxCell id="p-UVEbDCttvi8_ktXBPC-35" value="" style="endArrow=classic;html=1;rounded=0;entryX=1;entryY=0;entryDx=0;entryDy=0;exitX=0;exitY=1;exitDx=0;exitDy=0;" edge="1" parent="1" source="p-UVEbDCttvi8_ktXBPC-20" target="p-UVEbDCttvi8_ktXBPC-26">
          <mxGeometry width="50" height="50" relative="1" as="geometry">
            <mxPoint x="310" y="240" as="sourcePoint" />
            <mxPoint x="520" y="230" as="targetPoint" />
          </mxGeometry>
        </mxCell>
        <mxCell id="p-UVEbDCttvi8_ktXBPC-39" value="" style="edgeStyle=orthogonalEdgeStyle;rounded=0;orthogonalLoop=1;jettySize=auto;html=1;" edge="1" parent="1" source="p-UVEbDCttvi8_ktXBPC-36" target="p-UVEbDCttvi8_ktXBPC-27">
          <mxGeometry relative="1" as="geometry">
            <Array as="points">
              <mxPoint x="220" y="350" />
              <mxPoint x="220" y="405" />
            </Array>
          </mxGeometry>
        </mxCell>
        <mxCell id="p-UVEbDCttvi8_ktXBPC-36" value="Odabir termina" style="ellipse;whiteSpace=wrap;html=1;" vertex="1" parent="1">
          <mxGeometry x="30" y="280" width="120" height="80" as="geometry" />
        </mxCell>
        <mxCell id="p-UVEbDCttvi8_ktXBPC-37" value="" style="endArrow=classic;html=1;rounded=0;exitX=0.25;exitY=1;exitDx=0;exitDy=0;entryX=0.5;entryY=0;entryDx=0;entryDy=0;" edge="1" parent="1" source="p-UVEbDCttvi8_ktXBPC-26" target="p-UVEbDCttvi8_ktXBPC-36">
          <mxGeometry width="50" height="50" relative="1" as="geometry">
            <mxPoint x="470" y="280" as="sourcePoint" />
            <mxPoint x="520" y="230" as="targetPoint" />
          </mxGeometry>
        </mxCell>
        <mxCell id="p-UVEbDCttvi8_ktXBPC-40" value="Odabir frizera" style="ellipse;whiteSpace=wrap;html=1;" vertex="1" parent="1">
          <mxGeometry x="50" y="440" width="120" height="80" as="geometry" />
        </mxCell>
        <mxCell id="p-UVEbDCttvi8_ktXBPC-43" value="" style="endArrow=classic;html=1;rounded=0;entryX=1;entryY=0;entryDx=0;entryDy=0;" edge="1" parent="1" target="p-UVEbDCttvi8_ktXBPC-40">
          <mxGeometry width="50" height="50" relative="1" as="geometry">
            <mxPoint x="190" y="410" as="sourcePoint" />
            <mxPoint x="290" y="440" as="targetPoint" />
          </mxGeometry>
        </mxCell>
        <mxCell id="p-UVEbDCttvi8_ktXBPC-44" value="" style="endArrow=classic;html=1;rounded=0;exitX=1;exitY=1;exitDx=0;exitDy=0;entryX=0;entryY=0.25;entryDx=0;entryDy=0;" edge="1" parent="1" source="p-UVEbDCttvi8_ktXBPC-40" target="p-UVEbDCttvi8_ktXBPC-33">
          <mxGeometry width="50" height="50" relative="1" as="geometry">
            <mxPoint x="470" y="360" as="sourcePoint" />
            <mxPoint x="200" y="550" as="targetPoint" />
          </mxGeometry>
        </mxCell>
        <mxCell id="p-UVEbDCttvi8_ktXBPC-47" value="Zakazivanje usluge" style="ellipse;whiteSpace=wrap;html=1;" vertex="1" parent="1">
          <mxGeometry x="120" y="600" width="120" height="80" as="geometry" />
        </mxCell>
        <mxCell id="p-UVEbDCttvi8_ktXBPC-49" value="INFORMACIJE_O_USLUZI" style="text;html=1;align=center;verticalAlign=middle;whiteSpace=wrap;rounded=0;" vertex="1" parent="1">
          <mxGeometry x="160" y="710" width="60" height="30" as="geometry" />
        </mxCell>
        <mxCell id="p-UVEbDCttvi8_ktXBPC-50" value="" style="endArrow=none;html=1;rounded=0;" edge="1" parent="1">
          <mxGeometry width="50" height="50" relative="1" as="geometry">
            <mxPoint x="270" y="710" as="sourcePoint" />
            <mxPoint x="110" y="710" as="targetPoint" />
          </mxGeometry>
        </mxCell>
        <mxCell id="p-UVEbDCttvi8_ktXBPC-51" value="" style="endArrow=none;html=1;rounded=0;" edge="1" parent="1">
          <mxGeometry width="50" height="50" relative="1" as="geometry">
            <mxPoint x="110" y="740" as="sourcePoint" />
            <mxPoint x="270" y="740" as="targetPoint" />
          </mxGeometry>
        </mxCell>
        <mxCell id="p-UVEbDCttvi8_ktXBPC-53" value="" style="endArrow=classic;startArrow=classic;html=1;rounded=0;entryX=0;entryY=0.5;entryDx=0;entryDy=0;" edge="1" parent="1" target="p-UVEbDCttvi8_ktXBPC-8">
          <mxGeometry width="50" height="50" relative="1" as="geometry">
            <mxPoint x="170" y="160" as="sourcePoint" />
            <mxPoint x="260" y="100" as="targetPoint" />
          </mxGeometry>
        </mxCell>
        <mxCell id="p-UVEbDCttvi8_ktXBPC-54" value="" style="endArrow=classic;html=1;rounded=0;exitX=0.5;exitY=1;exitDx=0;exitDy=0;" edge="1" parent="1" source="p-UVEbDCttvi8_ktXBPC-47" target="p-UVEbDCttvi8_ktXBPC-49">
          <mxGeometry width="50" height="50" relative="1" as="geometry">
            <mxPoint x="470" y="760" as="sourcePoint" />
            <mxPoint x="520" y="710" as="targetPoint" />
          </mxGeometry>
        </mxCell>
        <mxCell id="p-UVEbDCttvi8_ktXBPC-55" value="Dolazak musterije na uslugu" style="ellipse;whiteSpace=wrap;html=1;" vertex="1" parent="1">
          <mxGeometry x="120" y="770" width="120" height="80" as="geometry" />
        </mxCell>
        <mxCell id="p-UVEbDCttvi8_ktXBPC-56" value="" style="endArrow=classic;html=1;rounded=0;entryX=0.5;entryY=0;entryDx=0;entryDy=0;exitX=0.25;exitY=1;exitDx=0;exitDy=0;" edge="1" parent="1" source="p-UVEbDCttvi8_ktXBPC-49" target="p-UVEbDCttvi8_ktXBPC-55">
          <mxGeometry width="50" height="50" relative="1" as="geometry">
            <mxPoint x="470" y="760" as="sourcePoint" />
            <mxPoint x="520" y="710" as="targetPoint" />
          </mxGeometry>
        </mxCell>
        <mxCell id="p-UVEbDCttvi8_ktXBPC-57" value="KONSULTACIJA_SA_FRIZEROM" style="text;html=1;align=center;verticalAlign=middle;whiteSpace=wrap;rounded=0;" vertex="1" parent="1">
          <mxGeometry x="155" y="880" width="60" height="30" as="geometry" />
        </mxCell>
        <mxCell id="p-UVEbDCttvi8_ktXBPC-58" value="" style="endArrow=none;html=1;rounded=0;" edge="1" parent="1">
          <mxGeometry width="50" height="50" relative="1" as="geometry">
            <mxPoint x="95" y="880" as="sourcePoint" />
            <mxPoint x="285" y="880" as="targetPoint" />
          </mxGeometry>
        </mxCell>
        <mxCell id="p-UVEbDCttvi8_ktXBPC-61" value="" style="endArrow=none;html=1;rounded=0;" edge="1" parent="1">
          <mxGeometry width="50" height="50" relative="1" as="geometry">
            <mxPoint x="95" y="910" as="sourcePoint" />
            <mxPoint x="285" y="910" as="targetPoint" />
          </mxGeometry>
        </mxCell>
        <mxCell id="p-UVEbDCttvi8_ktXBPC-62" value="" style="endArrow=classic;html=1;rounded=0;exitX=0.5;exitY=1;exitDx=0;exitDy=0;" edge="1" parent="1" source="p-UVEbDCttvi8_ktXBPC-55">
          <mxGeometry width="50" height="50" relative="1" as="geometry">
            <mxPoint x="70" y="760" as="sourcePoint" />
            <mxPoint x="180" y="880" as="targetPoint" />
          </mxGeometry>
        </mxCell>
        <mxCell id="p-UVEbDCttvi8_ktXBPC-63" value="Pranje kose" style="ellipse;whiteSpace=wrap;html=1;" vertex="1" parent="1">
          <mxGeometry x="130" y="940" width="120" height="80" as="geometry" />
        </mxCell>
        <mxCell id="p-UVEbDCttvi8_ktXBPC-64" value="" style="endArrow=classic;html=1;rounded=0;entryX=0.5;entryY=0;entryDx=0;entryDy=0;" edge="1" parent="1" target="p-UVEbDCttvi8_ktXBPC-63">
          <mxGeometry width="50" height="50" relative="1" as="geometry">
            <mxPoint x="190" y="910" as="sourcePoint" />
            <mxPoint x="340" y="780" as="targetPoint" />
          </mxGeometry>
        </mxCell>
        <mxCell id="p-UVEbDCttvi8_ktXBPC-65" value="UPOTREBA_Å AMPONA" style="text;html=1;align=center;verticalAlign=middle;whiteSpace=wrap;rounded=0;" vertex="1" parent="1">
          <mxGeometry x="180" y="1050" width="60" height="30" as="geometry" />
        </mxCell>
        <mxCell id="p-UVEbDCttvi8_ktXBPC-66" value="" style="endArrow=none;html=1;rounded=0;" edge="1" parent="1">
          <mxGeometry width="50" height="50" relative="1" as="geometry">
            <mxPoint x="140" y="1050" as="sourcePoint" />
            <mxPoint x="280" y="1050" as="targetPoint" />
          </mxGeometry>
        </mxCell>
        <mxCell id="p-UVEbDCttvi8_ktXBPC-67" value="" style="endArrow=none;html=1;rounded=0;" edge="1" parent="1">
          <mxGeometry width="50" height="50" relative="1" as="geometry">
            <mxPoint x="140" y="1080" as="sourcePoint" />
            <mxPoint x="280" y="1080" as="targetPoint" />
          </mxGeometry>
        </mxCell>
        <mxCell id="p-UVEbDCttvi8_ktXBPC-68" value="" style="endArrow=classic;html=1;rounded=0;exitX=0.5;exitY=1;exitDx=0;exitDy=0;" edge="1" parent="1" source="p-UVEbDCttvi8_ktXBPC-63">
          <mxGeometry width="50" height="50" relative="1" as="geometry">
            <mxPoint x="290" y="830" as="sourcePoint" />
            <mxPoint x="190" y="1050" as="targetPoint" />
          </mxGeometry>
        </mxCell>
        <mxCell id="p-UVEbDCttvi8_ktXBPC-69" value="Å iÅ¡anje kose" style="ellipse;whiteSpace=wrap;html=1;" vertex="1" parent="1">
          <mxGeometry x="140" y="1110" width="120" height="80" as="geometry" />
        </mxCell>
        <mxCell id="p-UVEbDCttvi8_ktXBPC-71" value="" style="endArrow=classic;html=1;rounded=0;entryX=0.5;entryY=0;entryDx=0;entryDy=0;exitX=0.25;exitY=1;exitDx=0;exitDy=0;" edge="1" parent="1" source="p-UVEbDCttvi8_ktXBPC-65" target="p-UVEbDCttvi8_ktXBPC-69">
          <mxGeometry width="50" height="50" relative="1" as="geometry">
            <mxPoint x="290" y="1060" as="sourcePoint" />
            <mxPoint x="340" y="1010" as="targetPoint" />
          </mxGeometry>
        </mxCell>
        <mxCell id="p-UVEbDCttvi8_ktXBPC-72" value="KORIÅ ÄENJE_MAÅ INICE" style="text;html=1;align=center;verticalAlign=middle;whiteSpace=wrap;rounded=0;" vertex="1" parent="1">
          <mxGeometry x="170" y="1200" width="60" height="40" as="geometry" />
        </mxCell>
        <mxCell id="p-UVEbDCttvi8_ktXBPC-73" value="" style="endArrow=none;html=1;rounded=0;" edge="1" parent="1">
          <mxGeometry width="50" height="50" relative="1" as="geometry">
            <mxPoint x="130" y="1210" as="sourcePoint" />
            <mxPoint x="270" y="1210" as="targetPoint" />
          </mxGeometry>
        </mxCell>
        <mxCell id="p-UVEbDCttvi8_ktXBPC-74" value="" style="endArrow=none;html=1;rounded=0;" edge="1" parent="1">
          <mxGeometry width="50" height="50" relative="1" as="geometry">
            <mxPoint x="130" y="1230" as="sourcePoint" />
            <mxPoint x="270" y="1230" as="targetPoint" />
          </mxGeometry>
        </mxCell>
        <mxCell id="p-UVEbDCttvi8_ktXBPC-75" value="" style="endArrow=classic;html=1;rounded=0;exitX=0.5;exitY=1;exitDx=0;exitDy=0;" edge="1" parent="1" source="p-UVEbDCttvi8_ktXBPC-69">
          <mxGeometry width="50" height="50" relative="1" as="geometry">
            <mxPoint x="290" y="1060" as="sourcePoint" />
            <mxPoint x="200" y="1210" as="targetPoint" />
          </mxGeometry>
        </mxCell>
        <mxCell id="p-UVEbDCttvi8_ktXBPC-76" value="Rezanje kose" style="ellipse;whiteSpace=wrap;html=1;" vertex="1" parent="1">
          <mxGeometry x="140" y="1250" width="120" height="80" as="geometry" />
        </mxCell>
        <mxCell id="p-UVEbDCttvi8_ktXBPC-77" value="" style="endArrow=classic;html=1;rounded=0;entryX=0.5;entryY=0;entryDx=0;entryDy=0;" edge="1" parent="1" target="p-UVEbDCttvi8_ktXBPC-76">
          <mxGeometry width="50" height="50" relative="1" as="geometry">
            <mxPoint x="200" y="1230" as="sourcePoint" />
            <mxPoint x="340" y="1010" as="targetPoint" />
          </mxGeometry>
        </mxCell>
        <mxCell id="p-UVEbDCttvi8_ktXBPC-78" value="" style="endArrow=classic;html=1;rounded=0;exitX=0.5;exitY=1;exitDx=0;exitDy=0;" edge="1" parent="1" source="p-UVEbDCttvi8_ktXBPC-76">
          <mxGeometry width="50" height="50" relative="1" as="geometry">
            <mxPoint x="290" y="1230" as="sourcePoint" />
            <mxPoint x="200" y="1370" as="targetPoint" />
          </mxGeometry>
        </mxCell>
        <mxCell id="p-UVEbDCttvi8_ktXBPC-79" value="" style="endArrow=none;html=1;rounded=0;" edge="1" parent="1">
          <mxGeometry width="50" height="50" relative="1" as="geometry">
            <mxPoint x="140" y="1370" as="sourcePoint" />
            <mxPoint x="260" y="1370" as="targetPoint" />
          </mxGeometry>
        </mxCell>
        <mxCell id="p-UVEbDCttvi8_ktXBPC-80" value="KORIÅ ÄENJE_MAKAZA_I_ÄEÅ LJA" style="text;html=1;align=center;verticalAlign=middle;whiteSpace=wrap;rounded=0;" vertex="1" parent="1">
          <mxGeometry x="170" y="1370" width="60" height="30" as="geometry" />
        </mxCell>
        <mxCell id="p-UVEbDCttvi8_ktXBPC-82" value="" style="endArrow=none;html=1;rounded=0;" edge="1" parent="1">
          <mxGeometry width="50" height="50" relative="1" as="geometry">
            <mxPoint x="140" y="1400" as="sourcePoint" />
            <mxPoint x="260" y="1400" as="targetPoint" />
          </mxGeometry>
        </mxCell>
        <mxCell id="p-UVEbDCttvi8_ktXBPC-108" style="edgeStyle=orthogonalEdgeStyle;rounded=0;orthogonalLoop=1;jettySize=auto;html=1;" edge="1" parent="1" source="p-UVEbDCttvi8_ktXBPC-83">
          <mxGeometry relative="1" as="geometry">
            <mxPoint x="620" y="1170" as="targetPoint" />
          </mxGeometry>
        </mxCell>
        <mxCell id="p-UVEbDCttvi8_ktXBPC-83" value="Brijanje/podbrijavanje" style="ellipse;whiteSpace=wrap;html=1;" vertex="1" parent="1">
          <mxGeometry x="560" y="960" width="120" height="80" as="geometry" />
        </mxCell>
        <mxCell id="p-UVEbDCttvi8_ktXBPC-86" value="UPOTREBA_BRITVE_I_PENE_ZA_BRIJANJE" style="text;html=1;align=center;verticalAlign=middle;whiteSpace=wrap;rounded=0;" vertex="1" parent="1">
          <mxGeometry x="570" y="1168.6699999999998" width="60" height="30" as="geometry" />
        </mxCell>
        <mxCell id="p-UVEbDCttvi8_ktXBPC-87" value="" style="endArrow=none;html=1;rounded=0;" edge="1" parent="1">
          <mxGeometry width="50" height="50" relative="1" as="geometry">
            <mxPoint x="480" y="1168.6699999999998" as="sourcePoint" />
            <mxPoint x="730" y="1168.6699999999998" as="targetPoint" />
          </mxGeometry>
        </mxCell>
        <mxCell id="p-UVEbDCttvi8_ktXBPC-88" value="" style="endArrow=none;html=1;rounded=0;" edge="1" parent="1">
          <mxGeometry width="50" height="50" relative="1" as="geometry">
            <mxPoint x="480" y="1198.6699999999998" as="sourcePoint" />
            <mxPoint x="730" y="1198.6699999999998" as="targetPoint" />
          </mxGeometry>
        </mxCell>
        <mxCell id="p-UVEbDCttvi8_ktXBPC-107" value="" style="edgeStyle=orthogonalEdgeStyle;rounded=0;orthogonalLoop=1;jettySize=auto;html=1;" edge="1" parent="1" source="p-UVEbDCttvi8_ktXBPC-89" target="p-UVEbDCttvi8_ktXBPC-94">
          <mxGeometry relative="1" as="geometry" />
        </mxCell>
        <mxCell id="p-UVEbDCttvi8_ktXBPC-89" value="Farbanje kose" style="ellipse;whiteSpace=wrap;html=1;" vertex="1" parent="1">
          <mxGeometry x="310" y="1025" width="120" height="80" as="geometry" />
        </mxCell>
        <mxCell id="p-UVEbDCttvi8_ktXBPC-109" style="edgeStyle=orthogonalEdgeStyle;rounded=0;orthogonalLoop=1;jettySize=auto;html=1;" edge="1" parent="1" source="p-UVEbDCttvi8_ktXBPC-92">
          <mxGeometry relative="1" as="geometry">
            <mxPoint x="820" y="1160" as="targetPoint" />
          </mxGeometry>
        </mxCell>
        <mxCell id="p-UVEbDCttvi8_ktXBPC-92" value="Å tucovanje brkova" style="ellipse;whiteSpace=wrap;html=1;" vertex="1" parent="1">
          <mxGeometry x="760" y="945" width="120" height="80" as="geometry" />
        </mxCell>
        <mxCell id="p-UVEbDCttvi8_ktXBPC-94" value="UPOTREBA_FARBE_I_FOLIJE" style="text;html=1;align=center;verticalAlign=middle;whiteSpace=wrap;rounded=0;" vertex="1" parent="1">
          <mxGeometry x="340" y="1168.67" width="60" height="30" as="geometry" />
        </mxCell>
        <mxCell id="p-UVEbDCttvi8_ktXBPC-95" value="" style="endArrow=none;html=1;rounded=0;" edge="1" parent="1">
          <mxGeometry width="50" height="50" relative="1" as="geometry">
            <mxPoint x="280" y="1168.67" as="sourcePoint" />
            <mxPoint x="460" y="1168.67" as="targetPoint" />
          </mxGeometry>
        </mxCell>
        <mxCell id="p-UVEbDCttvi8_ktXBPC-96" value="" style="endArrow=none;html=1;rounded=0;" edge="1" parent="1">
          <mxGeometry width="50" height="50" relative="1" as="geometry">
            <mxPoint x="280" y="1198.67" as="sourcePoint" />
            <mxPoint x="460" y="1198.67" as="targetPoint" />
          </mxGeometry>
        </mxCell>
        <mxCell id="p-UVEbDCttvi8_ktXBPC-100" value="UPOTREBA_SPECIJALNIH_MAKAZA" style="text;html=1;align=center;verticalAlign=middle;whiteSpace=wrap;rounded=0;" vertex="1" parent="1">
          <mxGeometry x="835" y="1158.6699999999998" width="60" height="30" as="geometry" />
        </mxCell>
        <mxCell id="p-UVEbDCttvi8_ktXBPC-101" value="" style="endArrow=none;html=1;rounded=0;" edge="1" parent="1">
          <mxGeometry width="50" height="50" relative="1" as="geometry">
            <mxPoint x="760" y="1158.6699999999998" as="sourcePoint" />
            <mxPoint x="970" y="1158.6699999999998" as="targetPoint" />
          </mxGeometry>
        </mxCell>
        <mxCell id="p-UVEbDCttvi8_ktXBPC-102" value="" style="endArrow=none;html=1;rounded=0;" edge="1" parent="1">
          <mxGeometry width="50" height="50" relative="1" as="geometry">
            <mxPoint x="760" y="1188.6699999999998" as="sourcePoint" />
            <mxPoint x="970" y="1188.6699999999998" as="targetPoint" />
          </mxGeometry>
        </mxCell>
        <mxCell id="p-UVEbDCttvi8_ktXBPC-117" style="edgeStyle=orthogonalEdgeStyle;rounded=0;orthogonalLoop=1;jettySize=auto;html=1;exitX=1;exitY=0.5;exitDx=0;exitDy=0;" edge="1" parent="1" source="p-UVEbDCttvi8_ktXBPC-104">
          <mxGeometry relative="1" as="geometry">
            <mxPoint x="480" y="1490" as="targetPoint" />
          </mxGeometry>
        </mxCell>
        <mxCell id="p-UVEbDCttvi8_ktXBPC-104" value="SuÅ¡enje kose" style="ellipse;whiteSpace=wrap;html=1;" vertex="1" parent="1">
          <mxGeometry x="300" y="1400" width="120" height="80" as="geometry" />
        </mxCell>
        <mxCell id="p-UVEbDCttvi8_ktXBPC-110" value="" style="endArrow=classic;html=1;rounded=0;entryX=0;entryY=0.5;entryDx=0;entryDy=0;" edge="1" parent="1" target="p-UVEbDCttvi8_ktXBPC-104">
          <mxGeometry width="50" height="50" relative="1" as="geometry">
            <mxPoint x="200" y="1400" as="sourcePoint" />
            <mxPoint x="500" y="1120" as="targetPoint" />
            <Array as="points">
              <mxPoint x="240" y="1440" />
            </Array>
          </mxGeometry>
        </mxCell>
        <mxCell id="p-UVEbDCttvi8_ktXBPC-112" value="" style="endArrow=classic;html=1;rounded=0;entryX=0.5;entryY=0;entryDx=0;entryDy=0;" edge="1" parent="1" target="p-UVEbDCttvi8_ktXBPC-104">
          <mxGeometry width="50" height="50" relative="1" as="geometry">
            <mxPoint x="360" y="1200" as="sourcePoint" />
            <mxPoint x="500" y="1120" as="targetPoint" />
          </mxGeometry>
        </mxCell>
        <mxCell id="p-UVEbDCttvi8_ktXBPC-124" style="edgeStyle=orthogonalEdgeStyle;rounded=0;orthogonalLoop=1;jettySize=auto;html=1;" edge="1" parent="1" source="p-UVEbDCttvi8_ktXBPC-113">
          <mxGeometry relative="1" as="geometry">
            <mxPoint x="770" y="1490" as="targetPoint" />
          </mxGeometry>
        </mxCell>
        <mxCell id="p-UVEbDCttvi8_ktXBPC-113" value="Stilizovanje" style="ellipse;whiteSpace=wrap;html=1;" vertex="1" parent="1">
          <mxGeometry x="610" y="1400" width="120" height="80" as="geometry" />
        </mxCell>
        <mxCell id="p-UVEbDCttvi8_ktXBPC-114" value="UPOTREBA_FENA" style="text;html=1;align=center;verticalAlign=middle;whiteSpace=wrap;rounded=0;" vertex="1" parent="1">
          <mxGeometry x="474" y="1490" width="60" height="30" as="geometry" />
        </mxCell>
        <mxCell id="p-UVEbDCttvi8_ktXBPC-115" value="" style="endArrow=none;html=1;rounded=0;" edge="1" parent="1">
          <mxGeometry width="50" height="50" relative="1" as="geometry">
            <mxPoint x="450" y="1490" as="sourcePoint" />
            <mxPoint x="560" y="1490" as="targetPoint" />
          </mxGeometry>
        </mxCell>
        <mxCell id="p-UVEbDCttvi8_ktXBPC-116" value="" style="endArrow=none;html=1;rounded=0;" edge="1" parent="1">
          <mxGeometry width="50" height="50" relative="1" as="geometry">
            <mxPoint x="450" y="1520" as="sourcePoint" />
            <mxPoint x="560" y="1520" as="targetPoint" />
            <Array as="points" />
          </mxGeometry>
        </mxCell>
        <mxCell id="p-UVEbDCttvi8_ktXBPC-118" value="" style="endArrow=classic;html=1;rounded=0;entryX=0;entryY=0.5;entryDx=0;entryDy=0;" edge="1" parent="1" target="p-UVEbDCttvi8_ktXBPC-113">
          <mxGeometry width="50" height="50" relative="1" as="geometry">
            <mxPoint x="520" y="1490" as="sourcePoint" />
            <mxPoint x="500" y="1410" as="targetPoint" />
          </mxGeometry>
        </mxCell>
        <mxCell id="p-UVEbDCttvi8_ktXBPC-119" value="" style="endArrow=classic;html=1;rounded=0;entryX=0.5;entryY=0;entryDx=0;entryDy=0;" edge="1" parent="1" target="p-UVEbDCttvi8_ktXBPC-113">
          <mxGeometry width="50" height="50" relative="1" as="geometry">
            <mxPoint x="620" y="1200" as="sourcePoint" />
            <mxPoint x="500" y="1410" as="targetPoint" />
          </mxGeometry>
        </mxCell>
        <mxCell id="p-UVEbDCttvi8_ktXBPC-120" value="" style="endArrow=classic;html=1;rounded=0;entryX=1;entryY=0;entryDx=0;entryDy=0;" edge="1" parent="1" target="p-UVEbDCttvi8_ktXBPC-113">
          <mxGeometry width="50" height="50" relative="1" as="geometry">
            <mxPoint x="820" y="1190" as="sourcePoint" />
            <mxPoint x="650" y="1290" as="targetPoint" />
          </mxGeometry>
        </mxCell>
        <mxCell id="p-UVEbDCttvi8_ktXBPC-121" value="UPOTREBA_GELA_ILI_POMADA" style="text;html=1;align=center;verticalAlign=middle;whiteSpace=wrap;rounded=0;" vertex="1" parent="1">
          <mxGeometry x="775" y="1490" width="60" height="30" as="geometry" />
        </mxCell>
        <mxCell id="p-UVEbDCttvi8_ktXBPC-122" value="" style="endArrow=none;html=1;rounded=0;" edge="1" parent="1">
          <mxGeometry width="50" height="50" relative="1" as="geometry">
            <mxPoint x="710" y="1490" as="sourcePoint" />
            <mxPoint x="900" y="1490" as="targetPoint" />
          </mxGeometry>
        </mxCell>
        <mxCell id="p-UVEbDCttvi8_ktXBPC-123" value="" style="endArrow=none;html=1;rounded=0;" edge="1" parent="1">
          <mxGeometry width="50" height="50" relative="1" as="geometry">
            <mxPoint x="710" y="1520" as="sourcePoint" />
            <mxPoint x="900" y="1520" as="targetPoint" />
          </mxGeometry>
        </mxCell>
        <mxCell id="p-UVEbDCttvi8_ktXBPC-127" style="edgeStyle=orthogonalEdgeStyle;rounded=0;orthogonalLoop=1;jettySize=auto;html=1;entryX=0.5;entryY=0;entryDx=0;entryDy=0;" edge="1" parent="1" source="p-UVEbDCttvi8_ktXBPC-126" target="p-UVEbDCttvi8_ktXBPC-92">
          <mxGeometry relative="1" as="geometry" />
        </mxCell>
        <mxCell id="p-UVEbDCttvi8_ktXBPC-128" style="edgeStyle=orthogonalEdgeStyle;rounded=0;orthogonalLoop=1;jettySize=auto;html=1;entryX=0.5;entryY=0;entryDx=0;entryDy=0;" edge="1" parent="1" source="p-UVEbDCttvi8_ktXBPC-126" target="p-UVEbDCttvi8_ktXBPC-83">
          <mxGeometry relative="1" as="geometry" />
        </mxCell>
        <mxCell id="p-UVEbDCttvi8_ktXBPC-129" style="edgeStyle=orthogonalEdgeStyle;rounded=0;orthogonalLoop=1;jettySize=auto;html=1;entryX=1;entryY=0.5;entryDx=0;entryDy=0;" edge="1" parent="1" source="p-UVEbDCttvi8_ktXBPC-126" target="p-UVEbDCttvi8_ktXBPC-89">
          <mxGeometry relative="1" as="geometry" />
        </mxCell>
        <mxCell id="p-UVEbDCttvi8_ktXBPC-135" style="edgeStyle=orthogonalEdgeStyle;rounded=0;orthogonalLoop=1;jettySize=auto;html=1;entryX=1;entryY=0.5;entryDx=0;entryDy=0;" edge="1" parent="1" source="p-UVEbDCttvi8_ktXBPC-126" target="p-UVEbDCttvi8_ktXBPC-63">
          <mxGeometry relative="1" as="geometry">
            <Array as="points">
              <mxPoint x="400" y="820" />
              <mxPoint x="400" y="980" />
            </Array>
          </mxGeometry>
        </mxCell>
        <mxCell id="p-UVEbDCttvi8_ktXBPC-126" value="&lt;b&gt;&lt;font style=&quot;font-size: 14px;&quot;&gt;FRIZER&lt;/font&gt;&lt;/b&gt;" style="rounded=0;whiteSpace=wrap;html=1;" vertex="1" parent="1">
          <mxGeometry x="420" y="790" width="210" height="60" as="geometry" />
        </mxCell>
        <mxCell id="p-UVEbDCttvi8_ktXBPC-134" value="" style="endArrow=classic;startArrow=classic;html=1;rounded=0;entryX=0;entryY=0.25;entryDx=0;entryDy=0;" edge="1" parent="1" target="p-UVEbDCttvi8_ktXBPC-126">
          <mxGeometry width="50" height="50" relative="1" as="geometry">
            <mxPoint x="260" y="880" as="sourcePoint" />
            <mxPoint x="340" y="890" as="targetPoint" />
            <Array as="points">
              <mxPoint x="300" y="860" />
            </Array>
          </mxGeometry>
        </mxCell>
        <mxCell id="p-UVEbDCttvi8_ktXBPC-136" value="ZavrÅ¡etak i naplata" style="ellipse;whiteSpace=wrap;html=1;" vertex="1" parent="1">
          <mxGeometry x="895" y="1540" width="120" height="80" as="geometry" />
        </mxCell>
        <mxCell id="p-UVEbDCttvi8_ktXBPC-137" value="" style="endArrow=classic;html=1;rounded=0;entryX=0;entryY=0.5;entryDx=0;entryDy=0;exitX=0.25;exitY=1;exitDx=0;exitDy=0;" edge="1" parent="1" source="p-UVEbDCttvi8_ktXBPC-121" target="p-UVEbDCttvi8_ktXBPC-136">
          <mxGeometry width="50" height="50" relative="1" as="geometry">
            <mxPoint x="550" y="1540" as="sourcePoint" />
            <mxPoint x="600" y="1490" as="targetPoint" />
          </mxGeometry>
        </mxCell>
        <mxCell id="p-UVEbDCttvi8_ktXBPC-139" value="IZDAVANJE_FAKTURE" style="text;html=1;align=center;verticalAlign=middle;whiteSpace=wrap;rounded=0;" vertex="1" parent="1">
          <mxGeometry x="935" y="1650" width="60" height="30" as="geometry" />
        </mxCell>
        <mxCell id="p-UVEbDCttvi8_ktXBPC-141" value="" style="endArrow=none;html=1;rounded=0;" edge="1" parent="1">
          <mxGeometry width="50" height="50" relative="1" as="geometry">
            <mxPoint x="895" y="1650" as="sourcePoint" />
            <mxPoint x="1035" y="1650" as="targetPoint" />
          </mxGeometry>
        </mxCell>
        <mxCell id="p-UVEbDCttvi8_ktXBPC-142" value="" style="endArrow=none;html=1;rounded=0;" edge="1" parent="1">
          <mxGeometry width="50" height="50" relative="1" as="geometry">
            <mxPoint x="895" y="1680" as="sourcePoint" />
            <mxPoint x="1035" y="1680" as="targetPoint" />
          </mxGeometry>
        </mxCell>
        <mxCell id="p-UVEbDCttvi8_ktXBPC-143" value="" style="endArrow=classic;html=1;rounded=0;exitX=0.5;exitY=1;exitDx=0;exitDy=0;" edge="1" parent="1" source="p-UVEbDCttvi8_ktXBPC-136">
          <mxGeometry width="50" height="50" relative="1" as="geometry">
            <mxPoint x="1090" y="1540" as="sourcePoint" />
            <mxPoint x="955" y="1650" as="targetPoint" />
          </mxGeometry>
        </mxCell>
        <mxCell id="p-UVEbDCttvi8_ktXBPC-144" value="Odabir plaÄanja" style="ellipse;whiteSpace=wrap;html=1;" vertex="1" parent="1">
          <mxGeometry x="310" y="495" width="120" height="80" as="geometry" />
        </mxCell>
        <mxCell id="p-UVEbDCttvi8_ktXBPC-147" value="PRIKAZ_NAÄINA_PLAÄANJA" style="text;html=1;align=center;verticalAlign=middle;whiteSpace=wrap;rounded=0;" vertex="1" parent="1">
          <mxGeometry x="345" y="590" width="60" height="30" as="geometry" />
        </mxCell>
        <mxCell id="p-UVEbDCttvi8_ktXBPC-148" value="" style="endArrow=none;html=1;rounded=0;" edge="1" parent="1">
          <mxGeometry width="50" height="50" relative="1" as="geometry">
            <mxPoint x="295" y="590" as="sourcePoint" />
            <mxPoint x="445" y="590" as="targetPoint" />
          </mxGeometry>
        </mxCell>
        <mxCell id="p-UVEbDCttvi8_ktXBPC-149" value="" style="endArrow=none;html=1;rounded=0;" edge="1" parent="1">
          <mxGeometry width="50" height="50" relative="1" as="geometry">
            <mxPoint x="295" y="620" as="sourcePoint" />
            <mxPoint x="445" y="620" as="targetPoint" />
          </mxGeometry>
        </mxCell>
        <mxCell id="p-UVEbDCttvi8_ktXBPC-152" value="" style="endArrow=classic;html=1;rounded=0;entryX=1;entryY=0.5;entryDx=0;entryDy=0;" edge="1" parent="1" target="p-UVEbDCttvi8_ktXBPC-47">
          <mxGeometry width="50" height="50" relative="1" as="geometry">
            <mxPoint x="360" y="620" as="sourcePoint" />
            <mxPoint x="354" y="660" as="targetPoint" />
            <Array as="points">
              <mxPoint x="280" y="640" />
            </Array>
          </mxGeometry>
        </mxCell>
        <mxCell id="p-UVEbDCttvi8_ktXBPC-153" value="" style="endArrow=classic;html=1;rounded=0;entryX=0;entryY=0.5;entryDx=0;entryDy=0;" edge="1" parent="1" target="p-UVEbDCttvi8_ktXBPC-144">
          <mxGeometry width="50" height="50" relative="1" as="geometry">
            <mxPoint x="250" y="520" as="sourcePoint" />
            <mxPoint x="300" y="480" as="targetPoint" />
          </mxGeometry>
        </mxCell>
        <mxCell id="p-UVEbDCttvi8_ktXBPC-154" value="" style="endArrow=classic;html=1;rounded=0;exitX=0.5;exitY=1;exitDx=0;exitDy=0;" edge="1" parent="1" source="p-UVEbDCttvi8_ktXBPC-144">
          <mxGeometry width="50" height="50" relative="1" as="geometry">
            <mxPoint x="250" y="530" as="sourcePoint" />
            <mxPoint x="380" y="590" as="targetPoint" />
          </mxGeometry>
        </mxCell>
        <mxCell id="p-UVEbDCttvi8_ktXBPC-156" value="Pisanje recenzije o frizeru/salonu" style="ellipse;whiteSpace=wrap;html=1;" vertex="1" parent="1">
          <mxGeometry x="730" y="560" width="120" height="80" as="geometry" />
        </mxCell>
        <mxCell id="p-UVEbDCttvi8_ktXBPC-157" value="" style="endArrow=classic;html=1;rounded=0;entryX=0.5;entryY=0;entryDx=0;entryDy=0;exitX=1;exitY=0.5;exitDx=0;exitDy=0;" edge="1" parent="1" source="p-UVEbDCttvi8_ktXBPC-10" target="p-UVEbDCttvi8_ktXBPC-156">
          <mxGeometry width="50" height="50" relative="1" as="geometry">
            <mxPoint x="720" y="10" as="sourcePoint" />
            <mxPoint x="610" y="380" as="targetPoint" />
            <Array as="points">
              <mxPoint x="790" y="30" />
            </Array>
          </mxGeometry>
        </mxCell>
      </root>
    </mxGraphModel>
  </diagram>
</mxfile>
